<svg width="30" height="30" viewBox="0 0 30 30" fill="none" xmlns="http://www.w3.org/2000/svg">
<path d="M15 17.5C16.3807 17.5 17.5 16.3807 17.5 15C17.5 13.6193 16.3807 12.5 15 12.5C13.6193 12.5 12.5 13.6193 12.5 15C12.5 16.3807 13.6193 17.5 15 17.5Z" stroke="#C2A633" stroke-width="2" stroke-linecap="round" stroke-linejoin="round"/>
<path d="M10.8528 8.75C10.4326 9.02931 10.0423 9.34988 9.6875 9.70594C9.31506 10.0796 8.98181 10.4924 8.69444 10.9375" stroke="#2171EA" stroke-width="2" stroke-linecap="round" stroke-linejoin="round"/>
<path d="M7.62344 16.3626C7.54238 15.9208 7.5 15.4654 7.5 15.0001C7.5 14.5349 7.54238 14.0795 7.62344 13.6377" stroke="#E84142" stroke-width="2" stroke-linecap="round" stroke-linejoin="round"/>
<path d="M10.8528 21.25C10.4326 20.9707 10.0423 20.6501 9.6875 20.2941C9.31506 19.9204 8.98181 19.5076 8.69444 19.0625" stroke="#2171EA" stroke-width="2" stroke-linecap="round" stroke-linejoin="round"/>
<path d="M16.4749 22.3551C15.998 22.4501 15.5048 22.5 15 22.5C14.4951 22.5 14.0019 22.4501 13.5251 22.3551" stroke="#E84142" stroke-width="2" stroke-linecap="round" stroke-linejoin="round"/>
<path d="M19.1473 21.25C19.5674 20.9707 19.9578 20.6501 20.3126 20.2941C20.685 19.9204 21.0182 19.5076 21.3056 19.0625" stroke="#2171EA" stroke-width="2" stroke-linecap="round" stroke-linejoin="round"/>
<path d="M22.3767 16.3626C22.4578 15.9208 22.5002 15.4654 22.5002 15.0001C22.5002 14.5349 22.4578 14.0795 22.3767 13.6377" stroke="#E84142" stroke-width="2" stroke-linecap="round" stroke-linejoin="round"/>
<path d="M19.1473 8.75C19.5674 9.02931 19.9578 9.34988 20.3126 9.70594C20.685 10.0796 21.0182 10.4924 21.3056 10.9375" stroke="#2171EA" stroke-width="2" stroke-linecap="round" stroke-linejoin="round"/>
<path d="M13.5251 7.645C14.0019 7.54988 14.4951 7.5 14.9999 7.5C15.5048 7.5 15.998 7.54988 16.4749 7.645" stroke="#E84142" stroke-width="2" stroke-linecap="round" stroke-linejoin="round"/>
<path d="M27.5 15C27.5 14.5781 27.4791 14.1611 27.4382 13.75C27.3962 13.3267 27.3331 12.9098 27.2499 12.5M2.5 15C2.5 14.5781 2.5209 14.1611 2.56172 13.75C2.60374 13.3267 2.66687 12.9098 2.75004 12.5M24.1537 23.5124C23.8729 23.8142 23.5774 24.1021 23.2682 24.375C22.9915 24.6192 22.7039 24.8514 22.4061 25.0708M5.84627 23.5124C6.12707 23.8142 6.42262 24.1021 6.73181 24.375C7.0085 24.6192 7.29619 24.8514 7.59387 25.0708M9.82025 3.62034C9.41056 3.80714 9.01269 4.01541 8.62813 4.24371C8.27156 4.45539 7.92644 4.68429 7.59387 4.92927M20.1798 3.62034C20.5894 3.80714 20.9873 4.01541 21.3719 4.24371C21.7284 4.45539 22.0736 4.68429 22.4061 4.92927M16.4041 2.57798C15.9432 2.52646 15.4747 2.5 15 2.5C14.5253 2.5 14.0568 2.52646 13.5959 2.57798M16.4041 27.422C16.8744 27.3694 17.3368 27.2908 17.7899 27.1875C18.2231 27.0887 18.6477 26.9675 19.0625 26.825M13.5959 27.422C13.1256 27.3694 12.6632 27.2908 12.2101 27.1875C11.7769 27.0887 11.3523 26.9675 10.9375 26.825M5.09684 7.37156C4.86016 7.67838 4.63742 7.9965 4.42957 8.32494C4.24227 8.62094 4.06706 8.92531 3.90462 9.23744M24.9032 7.37156C25.1398 7.67838 25.3626 7.9965 25.5704 8.32494C25.7578 8.62094 25.9329 8.92531 26.0954 9.23744M3.90462 20.7626C3.72298 20.4136 3.55733 20.0549 3.40862 19.6875C3.27219 19.3504 3.15003 19.0061 3.04289 18.6552M26.0954 20.7626C26.277 20.4136 26.4427 20.0549 26.5914 19.6875C26.7278 19.3504 26.85 19.0061 26.9571 18.6552" stroke="#C2A633" stroke-width="2" stroke-linecap="round" stroke-linejoin="round"/>
</svg>
