<svg width="147" height="30" viewBox="0 0 147 30" fill="none" xmlns="http://www.w3.org/2000/svg">
<g clip-path="url(#clip0_2_1468)">
<rect width="30" height="30" rx="15" fill="#1A2027"/>
<path d="M15 17.5C16.3807 17.5 17.5 16.3807 17.5 15C17.5 13.6193 16.3807 12.5 15 12.5C13.6193 12.5 12.5 13.6193 12.5 15C12.5 16.3807 13.6193 17.5 15 17.5Z" stroke="#C2A633" stroke-width="2" stroke-linecap="round" stroke-linejoin="round"/>
<path d="M10.8528 8.75C10.4326 9.02931 10.0423 9.34988 9.6875 9.70594C9.31506 10.0796 8.98181 10.4924 8.69444 10.9375" stroke="#2171EA" stroke-width="2" stroke-linecap="round" stroke-linejoin="round"/>
<path d="M7.62344 16.3626C7.54238 15.9208 7.5 15.4654 7.5 15.0001C7.5 14.5349 7.54238 14.0795 7.62344 13.6377" stroke="#E84142" stroke-width="2" stroke-linecap="round" stroke-linejoin="round"/>
<path d="M10.8528 21.25C10.4326 20.9707 10.0423 20.6501 9.6875 20.2941C9.31506 19.9204 8.98181 19.5076 8.69444 19.0625" stroke="#2171EA" stroke-width="2" stroke-linecap="round" stroke-linejoin="round"/>
<path d="M16.4749 22.3551C15.998 22.4501 15.5048 22.5 15 22.5C14.4951 22.5 14.0019 22.4501 13.5251 22.3551" stroke="#E84142" stroke-width="2" stroke-linecap="round" stroke-linejoin="round"/>
<path d="M19.1473 21.25C19.5674 20.9707 19.9578 20.6501 20.3126 20.2941C20.685 19.9204 21.0182 19.5076 21.3056 19.0625" stroke="#2171EA" stroke-width="2" stroke-linecap="round" stroke-linejoin="round"/>
<path d="M22.3767 16.3626C22.4578 15.9208 22.5002 15.4654 22.5002 15.0001C22.5002 14.5349 22.4578 14.0795 22.3767 13.6377" stroke="#E84142" stroke-width="2" stroke-linecap="round" stroke-linejoin="round"/>
<path d="M19.1473 8.75C19.5674 9.02931 19.9578 9.34988 20.3126 9.70594C20.685 10.0796 21.0182 10.4924 21.3056 10.9375" stroke="#2171EA" stroke-width="2" stroke-linecap="round" stroke-linejoin="round"/>
<path d="M13.5251 7.645C14.0019 7.54988 14.4951 7.5 14.9999 7.5C15.5048 7.5 15.998 7.54988 16.4749 7.645" stroke="#E84142" stroke-width="2" stroke-linecap="round" stroke-linejoin="round"/>
<path d="M27.5 15C27.5 14.5781 27.4791 14.1611 27.4382 13.75C27.3962 13.3267 27.3331 12.9098 27.2499 12.5M2.5 15C2.5 14.5781 2.5209 14.1611 2.56172 13.75C2.60374 13.3267 2.66687 12.9098 2.75004 12.5M24.1537 23.5124C23.8729 23.8142 23.5774 24.1021 23.2682 24.375C22.9915 24.6192 22.7039 24.8514 22.4061 25.0708M5.84627 23.5124C6.12707 23.8142 6.42262 24.1021 6.73181 24.375C7.0085 24.6192 7.29619 24.8514 7.59387 25.0708M9.82025 3.62034C9.41056 3.80714 9.01269 4.01541 8.62813 4.24371C8.27156 4.45539 7.92644 4.68429 7.59387 4.92927M20.1798 3.62034C20.5894 3.80714 20.9873 4.01541 21.3719 4.24371C21.7284 4.45539 22.0736 4.68429 22.4061 4.92927M16.4041 2.57798C15.9432 2.52646 15.4747 2.5 15 2.5C14.5253 2.5 14.0568 2.52646 13.5959 2.57798M16.4041 27.422C16.8744 27.3694 17.3368 27.2908 17.7899 27.1875C18.2231 27.0887 18.6477 26.9675 19.0625 26.825M13.5959 27.422C13.1256 27.3694 12.6632 27.2908 12.2101 27.1875C11.7769 27.0887 11.3523 26.9675 10.9375 26.825M5.09684 7.37156C4.86016 7.67838 4.63742 7.9965 4.42957 8.32494C4.24227 8.62094 4.06706 8.92531 3.90462 9.23744M24.9032 7.37156C25.1398 7.67838 25.3626 7.9965 25.5704 8.32494C25.7578 8.62094 25.9329 8.92531 26.0954 9.23744M3.90462 20.7626C3.72298 20.4136 3.55733 20.0549 3.40862 19.6875C3.27219 19.3504 3.15003 19.0061 3.04289 18.6552M26.0954 20.7626C26.277 20.4136 26.4427 20.0549 26.5914 19.6875C26.7278 19.3504 26.85 19.0061 26.9571 18.6552" stroke="#C2A633" stroke-width="2" stroke-linecap="round" stroke-linejoin="round"/>
</g>
<path d="M42.8027 21.7285C41.543 21.7285 40.4473 21.4561 39.5156 20.9111C38.5898 20.3662 37.8721 19.6016 37.3623 18.6172C36.8584 17.627 36.6064 16.4697 36.6064 15.1455C36.6064 13.8389 36.8555 12.6963 37.3535 11.7178C37.8516 10.7393 38.5635 9.97754 39.4893 9.43262C40.415 8.8877 41.5166 8.61523 42.7939 8.61523C44.2295 8.61523 45.4482 8.97559 46.4502 9.69629C47.458 10.4111 48.1201 11.4482 48.4365 12.8076L45.6768 13.4492C45.501 12.5996 45.1582 11.9639 44.6484 11.542C44.1445 11.1201 43.5234 10.9092 42.7852 10.9092C42.0762 10.9092 41.4727 11.085 40.9746 11.4365C40.4824 11.7881 40.1045 12.2832 39.8408 12.9219C39.583 13.5547 39.4541 14.3047 39.4541 15.1719C39.4541 16.0391 39.5859 16.7949 39.8496 17.4395C40.1133 18.0781 40.4912 18.5732 40.9834 18.9248C41.4756 19.2705 42.0645 19.4434 42.75 19.4434C43.4883 19.4434 44.1094 19.2324 44.6133 18.8105C45.1172 18.3887 45.46 17.7939 45.6416 17.0264L48.4629 17.5977C48.123 18.9219 47.4521 19.9414 46.4502 20.6562C45.4482 21.3711 44.2324 21.7285 42.8027 21.7285Z" fill="#F49B33"/>
<path d="M49.6761 21.5V12.0078H52.2074V14.1436L52.1019 13.8623C52.4007 13.1592 52.8226 12.6377 53.3675 12.2979C53.9125 11.9521 54.5072 11.7793 55.1517 11.7793C55.3334 11.7793 55.5179 11.7939 55.7054 11.8232C55.8929 11.8525 56.0804 11.9023 56.2679 11.9727L56.0658 14.2051C55.6849 14.0996 55.3187 14.0469 54.9671 14.0469C54.68 14.0469 54.3783 14.0967 54.0619 14.1963C53.7513 14.2959 53.4613 14.4717 53.1918 14.7236C52.9281 14.9697 52.7113 15.3213 52.5414 15.7783C52.3773 16.2295 52.2953 16.8066 52.2953 17.5098V21.5H49.6761ZM58.3952 24.9277V23.0117H59.9861C60.115 23.0117 60.2087 22.9854 60.2673 22.9326C60.3318 22.8799 60.3904 22.7832 60.4431 22.6426L60.9265 21.3154L60.7771 22.2646L56.6462 12.0078H59.573L62.0251 19.6719L61.7702 19.6367L64.2136 12.0078H67.1316L62.7195 23.3633C62.4909 23.9492 62.1716 24.3564 61.7614 24.585C61.3513 24.8135 60.8708 24.9277 60.32 24.9277H58.3952ZM68.0811 24.9277V12.0078H70.5596V13.915L70.5333 13.7744C70.8614 13.083 71.2979 12.5791 71.8429 12.2627C72.3936 11.9404 73.0089 11.7793 73.6886 11.7793C74.4854 11.7793 75.1739 11.9785 75.754 12.377C76.3399 12.7695 76.7911 13.3408 77.1075 14.0908C77.4239 14.835 77.5821 15.7285 77.5821 16.7715C77.5821 17.8145 77.421 18.708 77.0987 19.4521C76.7823 20.1904 76.3282 20.7559 75.7364 21.1484C75.1505 21.5352 74.4532 21.7285 73.6446 21.7285C72.9415 21.7285 72.3145 21.5674 71.7638 21.2451C71.2188 20.917 70.7764 20.3867 70.4366 19.6543L70.6827 19.6367V24.9277H68.0811ZM72.713 19.751C73.3516 19.751 73.8614 19.4844 74.2423 18.9512C74.6231 18.4121 74.8136 17.668 74.8136 16.7188C74.8136 15.7812 74.6261 15.0547 74.2511 14.5391C73.8819 14.0176 73.3751 13.7568 72.7305 13.7568C72.3263 13.7568 71.96 13.8652 71.6319 14.082C71.3096 14.2988 71.0518 14.6299 70.8585 15.0752C70.671 15.5146 70.5772 16.0684 70.5772 16.7363C70.5772 17.7383 70.7823 18.4912 71.1925 18.9951C71.6026 19.499 72.1095 19.751 72.713 19.751ZM81.7221 21.5C81.019 21.5 80.477 21.3301 80.0961 20.9902C79.7211 20.6445 79.5336 20.1494 79.5336 19.5049V13.9238H78.1801V12.0078H79.5336V10.1445L82.1528 9.51172V12.0078H83.9106V13.9238H82.1528V19.0918C82.1528 19.2852 82.1791 19.417 82.2319 19.4873C82.2905 19.5518 82.4106 19.584 82.5922 19.584H84.0424V21.5H81.7221ZM89.492 21.7285C88.5369 21.7285 87.6932 21.5176 86.9607 21.0957C86.2342 20.6738 85.6658 20.0908 85.2557 19.3467C84.8455 18.5967 84.6404 17.7324 84.6404 16.7539C84.6404 15.7695 84.8455 14.9053 85.2557 14.1611C85.6658 13.4111 86.2342 12.8281 86.9607 12.4121C87.6932 11.9902 88.5369 11.7793 89.492 11.7793C90.4529 11.7793 91.2967 11.9902 92.0232 12.4121C92.7557 12.8281 93.327 13.4111 93.7371 14.1611C94.1473 14.9053 94.3523 15.7695 94.3523 16.7539C94.3523 17.7383 94.1473 18.6055 93.7371 19.3555C93.327 20.0996 92.7557 20.6826 92.0232 21.1045C91.2908 21.5205 90.4471 21.7285 89.492 21.7285ZM89.5008 19.8037C90.1512 19.8037 90.6639 19.5312 91.0389 18.9863C91.4197 18.4355 91.6102 17.6914 91.6102 16.7539C91.6102 15.8105 91.4197 15.0664 91.0389 14.5215C90.6639 13.9766 90.1482 13.7041 89.492 13.7041C88.8416 13.7041 88.326 13.9766 87.9451 14.5215C87.5701 15.0664 87.3826 15.8105 87.3826 16.7539C87.3826 17.6973 87.5701 18.4414 87.9451 18.9863C88.326 19.5312 88.8445 19.8037 89.5008 19.8037ZM110.92 21.7461C110.006 21.7461 109.198 21.5762 108.495 21.2363C107.792 20.8906 107.241 20.3926 106.842 19.7422C106.45 19.0859 106.253 18.2979 106.253 17.3779C106.253 16.6455 106.382 15.9453 106.64 15.2773C106.898 14.6035 107.27 14.0029 107.756 13.4756C108.243 12.9482 108.832 12.5322 109.523 12.2275C110.22 11.917 111.002 11.7617 111.87 11.7617C112.766 11.7617 113.516 11.9229 114.12 12.2451C114.729 12.5674 115.198 12.998 115.526 13.5371C115.854 14.0762 116.05 14.6826 116.115 15.3564C116.185 16.0244 116.126 16.71 115.939 17.4131H108.398L108.758 15.6904H113.267L113.03 16.0859C113.059 15.8457 113.053 15.5674 113.012 15.251C112.977 14.9346 112.872 14.6592 112.696 14.4248C112.526 14.1904 112.248 14.0732 111.861 14.0732C111.462 14.0732 111.126 14.2051 110.85 14.4688C110.575 14.7266 110.352 15.0518 110.182 15.4443C110.018 15.8369 109.898 16.2354 109.822 16.6396C109.751 17.0381 109.716 17.375 109.716 17.6504C109.716 18.1367 109.825 18.5264 110.042 18.8193C110.264 19.1123 110.61 19.2588 111.079 19.2588C111.401 19.2588 111.7 19.1738 111.975 19.0039C112.251 18.8281 112.511 18.5205 112.757 18.0811L115.684 18.8545C115.221 19.833 114.574 20.5596 113.742 21.0342C112.91 21.5088 111.969 21.7461 110.92 21.7461ZM116.098 21.5L118.093 12.0078H121.389L120.94 14.1523L120.958 13.7568C121.386 13.083 121.849 12.582 122.347 12.2539C122.85 11.9258 123.439 11.7617 124.113 11.7617C124.875 11.7617 125.455 11.9463 125.853 12.3154C126.258 12.6846 126.507 13.1797 126.6 13.8008C126.7 14.4219 126.671 15.1104 126.513 15.8662L125.335 21.5H121.969L123.111 15.9893C123.176 15.6846 123.211 15.3945 123.217 15.1191C123.228 14.8379 123.176 14.6064 123.058 14.4248C122.947 14.2432 122.736 14.1523 122.426 14.1523C121.945 14.1523 121.538 14.4189 121.204 14.9521C120.87 15.4795 120.568 16.3701 120.299 17.624L119.473 21.5H116.098ZM131.364 21.7461C130.814 21.7461 130.269 21.6846 129.73 21.5615C129.191 21.4385 128.696 21.2539 128.244 21.0078C127.793 20.7617 127.427 20.457 127.146 20.0938C126.864 19.7246 126.709 19.2969 126.68 18.8105L129.677 18.2305C129.654 18.582 129.785 18.8633 130.073 19.0742C130.36 19.2793 130.752 19.3818 131.25 19.3818C131.555 19.3818 131.795 19.3467 131.971 19.2764C132.147 19.2002 132.273 19.1064 132.349 18.9951C132.431 18.8838 132.472 18.7695 132.472 18.6523C132.472 18.459 132.375 18.2861 132.182 18.1338C131.994 17.9756 131.719 17.8672 131.356 17.8086L130.758 17.7119C130.448 17.6592 130.116 17.5801 129.765 17.4746C129.413 17.3633 129.082 17.2109 128.772 17.0176C128.467 16.8184 128.215 16.5605 128.016 16.2441C127.823 15.9277 127.726 15.5381 127.726 15.0752C127.726 14.4482 127.913 13.8857 128.288 13.3877C128.663 12.8838 129.17 12.4883 129.809 12.2012C130.448 11.9082 131.162 11.7617 131.953 11.7617C132.651 11.7617 133.324 11.8789 133.975 12.1133C134.631 12.3418 135.176 12.6699 135.61 13.0977C136.049 13.5195 136.292 14.0176 136.339 14.5918L133.386 15.1807C133.374 14.7939 133.242 14.5127 132.99 14.3369C132.744 14.1553 132.44 14.0645 132.076 14.0645C131.719 14.0645 131.467 14.1348 131.321 14.2754C131.18 14.4102 131.11 14.5625 131.11 14.7324C131.11 15.0137 131.253 15.2129 131.54 15.3301C131.833 15.4414 132.158 15.5264 132.516 15.585L133.289 15.708C133.975 15.8193 134.567 16.1152 135.065 16.5957C135.563 17.0703 135.812 17.6914 135.812 18.459C135.812 19.127 135.615 19.707 135.223 20.1992C134.83 20.6914 134.297 21.0723 133.623 21.3418C132.955 21.6113 132.202 21.7461 131.364 21.7461ZM141.288 21.7461C140.374 21.7461 139.565 21.5762 138.862 21.2363C138.159 20.8906 137.608 20.3926 137.21 19.7422C136.817 19.0859 136.621 18.2979 136.621 17.3779C136.621 16.6455 136.75 15.9453 137.007 15.2773C137.265 14.6035 137.637 14.0029 138.124 13.4756C138.61 12.9482 139.199 12.5322 139.89 12.2275C140.588 11.917 141.37 11.7617 142.237 11.7617C143.133 11.7617 143.883 11.9229 144.487 12.2451C145.096 12.5674 145.565 12.998 145.893 13.5371C146.221 14.0762 146.418 14.6826 146.482 15.3564C146.552 16.0244 146.494 16.71 146.306 17.4131H138.765L139.126 15.6904H143.634L143.397 16.0859C143.426 15.8457 143.421 15.5674 143.379 15.251C143.344 14.9346 143.239 14.6592 143.063 14.4248C142.893 14.1904 142.615 14.0732 142.228 14.0732C141.83 14.0732 141.493 14.2051 141.217 14.4688C140.942 14.7266 140.719 15.0518 140.549 15.4443C140.385 15.8369 140.265 16.2354 140.189 16.6396C140.119 17.0381 140.084 17.375 140.084 17.6504C140.084 18.1367 140.192 18.5264 140.409 18.8193C140.631 19.1123 140.977 19.2588 141.446 19.2588C141.768 19.2588 142.067 19.1738 142.342 19.0039C142.618 18.8281 142.879 18.5205 143.125 18.0811L146.051 18.8545C145.588 19.833 144.941 20.5596 144.109 21.0342C143.277 21.5088 142.337 21.7461 141.288 21.7461Z" fill="white"/>
<path d="M100.312 21.7461C99.6203 21.7461 98.9435 21.6641 98.2814 21.5C97.6193 21.3359 97.0187 21.0928 96.4796 20.7705C95.9406 20.4424 95.5041 20.0381 95.1701 19.5576C94.8361 19.0713 94.6457 18.5059 94.5988 17.8613L98.1584 17.1406C98.1056 17.4922 98.1701 17.7939 98.3517 18.0459C98.5392 18.2979 98.8088 18.4912 99.1603 18.626C99.5119 18.7607 99.9074 18.8281 100.347 18.8281C100.652 18.8281 100.921 18.7959 101.155 18.7314C101.39 18.6611 101.574 18.5527 101.709 18.4062C101.85 18.2598 101.92 18.0693 101.92 17.835C101.92 17.5244 101.791 17.2783 101.533 17.0967C101.276 16.9092 100.88 16.7451 100.347 16.6045L99.4416 16.3672C99.0197 16.2559 98.6125 16.1123 98.2199 15.9365C97.8332 15.7607 97.4845 15.541 97.174 15.2773C96.8693 15.0078 96.6261 14.6855 96.4445 14.3105C96.2687 13.9297 96.1808 13.4814 96.1808 12.9658C96.1808 12.1514 96.4035 11.416 96.8488 10.7598C97.3 10.0977 97.9152 9.57324 98.6945 9.18652C99.4738 8.79395 100.353 8.59766 101.331 8.59766C101.964 8.59766 102.585 8.68262 103.194 8.85254C103.804 9.02246 104.358 9.26855 104.856 9.59082C105.354 9.91309 105.758 10.2998 106.069 10.751C106.379 11.1963 106.552 11.7002 106.587 12.2627L103.142 12.9395C103.142 12.6641 103.069 12.4209 102.922 12.21C102.776 11.9932 102.568 11.8232 102.298 11.7002C102.028 11.5771 101.706 11.5156 101.331 11.5156C100.933 11.5156 100.628 11.5801 100.417 11.709C100.206 11.8379 100.063 11.9873 99.9865 12.1572C99.9162 12.3213 99.881 12.4678 99.881 12.5967C99.881 12.9248 100.048 13.1592 100.382 13.2998C100.722 13.4346 101.141 13.5723 101.639 13.7129L102.588 13.9766C103.08 14.1113 103.561 14.334 104.029 14.6445C104.504 14.9492 104.894 15.3477 105.198 15.8398C105.503 16.3262 105.655 16.918 105.655 17.6152C105.655 18.2305 105.524 18.793 105.26 19.3027C105.002 19.8066 104.633 20.2402 104.153 20.6035C103.678 20.9668 103.112 21.248 102.456 21.4473C101.806 21.6465 101.091 21.7461 100.312 21.7461Z" fill="#2171EA"/>
<defs>
<clipPath id="clip0_2_1468">
<rect width="30" height="30" rx="15" fill="white"/>
</clipPath>
</defs>
</svg>
